<svg xmlns="http://www.w3.org/2000/svg" xml:space="preserve" width="1000" height="363.157" viewBox="0 0 1000 363.157"><g fill="#dd0301" font-family="ITC Benguiat Std" font-size="242.372" font-weight="bold" text-anchor="middle"><path d="M827.078 238.422v13.08H1000v-13.08zM0 238.422v13.08h148.105v-13.08zm473.541-22.562v5.462c7.498-.218 10.059 6.558 10.059 21.856v89.166c0 15.298-2.56 22.072-10.059 21.853v5.463h35.479v-5.463c-7.499.219-9.875-6.555-9.875-21.853v-90.479l54.314 74.742c5.486 7.43 10.79 14.643 10.79 25.133 0 7.43-3.475 11.365-9.327 12.457v5.244h36.76v-5.462c-7.498.218-10.059-6.556-10.059-21.854v-88.947c0-15.298 2.56-22.074 10.059-21.856v-5.463h-36.76v5.463c7.498-.218 11.156 6.558 11.156 21.856v27.535l-20.117-29.502c-2.378-3.278-7.315-9.397-7.315-13.986 0-3.497 2.194-5.029 4.754-5.903v-5.463zm-63.557 0v5.462c7.498-.218 10.059 6.558 10.059 21.856v89.166c0 15.298-2.56 22.072-10.059 21.853v5.463h57.608v-5.463c-7.498.219-10.059-6.555-10.059-21.853v-89.166c0-15.298 2.56-22.074 10.059-21.856v-5.463zm-139.67 0v5.462c7.499-.218 10.06 6.558 10.06 21.856v89.166c0 15.298-2.561 22.072-10.06 21.853v5.463h58.338v-5.463c-8.23-.218-10.789-6.775-10.789-22.947v-61.848h36.393v61.848c0 16.172-2.56 22.729-10.79 22.947v5.463h58.339v-5.463c-7.498.219-10.059-6.555-10.059-21.853v-89.166c0-15.298 2.56-22.074 10.059-21.856v-5.463h-58.338v5.463c7.498-.218 10.789 6.558 10.789 21.856v11.8h-36.393v-11.8c0-15.298 3.291-22.074 10.79-21.856v-5.463zm544.546-4.153c-2.56 3.715-7.68 5.246-11.339 5.246-3.84 0-14.813-4.59-33.466-4.59-15.91 0-46.086 8.74-46.086 48.078 0 10.053 4.207 20.106 10.79 26.444 5.67 5.463 14.264 9.18 21.214 11.803l18.47 7.21c7.681 3.06 18.838 6.121 18.838 18.141 0 18.14-14.265 21.635-26.7 21.635-18.947 0-34.559-14.416-40.577-34.873h-5.475l3.44 52.138c2.743-3.278 5.668-5.246 9.875-5.246 3.475 0 8.595 1.312 12.07 2.186 9.144 1.967 16.277 3.277 25.604 3.277 37.49 0 60.533-16.606 60.533-52.885 0-18.357-13.716-33.001-30.358-38.902l-21.398-7.648c-6.767-2.404-19.02-5.683-19.02-16.61-.548-12.457 11.156-17.265 20.118-17.265 12.18 0 24.356 9.698 31.048 22.152h6.457z" style="line-height:1.25;-inkscape-font-specification:&quot;ITC Benguiat Std Bold&quot;;text-align:center"/><path d="m165.045 211.096-7.7 42.799h4.735c5.625-16.741 17.895-25.911 33.844-26.317v102.73c0 16.257-2.645 23.482-14.926 23.708v5.646h68.586v-5.646c-12.281-.226-14.928-7.451-14.928-23.707v-102.73c16.582 1.212 26.788 10.054 33.356 26.316h5.088l-7.225-42.8Zm531.113-.262c-2.377 3.934-6.035 6.12-10.058 6.12-2.744 0-5.488-.656-8.23-1.311-9.328-2.186-14.814-3.278-28.53-3.278-27.784 0-52.174 12.751-62.303 39.565v59.562c4.267 12.512 11.127 23.807 20.059 31.998 15.544 14.206 34.929 16.172 53.765 16.172h58.887V354.2c-2.926-1.311-6.033-2.622-7.496-6.119-1.829-4.152-1.647-14.424-1.647-19.232v-25.352c0-11.583-1.462-24.475 11.522-25.35v-5.462h-58.705v5.462c12.07.656 11.156 12.24 11.156 22.948V321.2c0 5.245.183 12.239-2.012 16.828-2.377 5.245-8.047 7.211-12.802 7.211-25.97 0-37.489-35.185-37.489-61.41 0-27.1 9.874-55.072 36.026-55.072 17.922 0 33.102 14.423 39.685 33.873l3.84-.654zM231.664 34.775v5.465c7.498-.218 10.057 6.556 10.057 21.854v89.166c0 15.298-2.559 22.072-10.057 21.853v5.465h57.424v-5.465c-7.498.219-10.059-6.555-10.059-21.853v-38.244l6.4-2.623c7.682 10.708 25.97 42.178 25.97 55.51 0 5.9-3.292 6.992-7.499 7.21v5.465h79.36v-5.465c-4.938-.655-8.412-2.84-8.412-9.615 0-4.808 2.194-13.112 3.474-17.701l6.584-22.293c10.242-.656 19.201 2.624 27.614 9.617 7.132 5.682 15.363 16.608 15.363 27.317 0 7.43-4.207 12.238-10.059 12.675v5.465h88.043v-5.465c-7.498.219-9.875-6.555-9.875-21.853V60.783l54.315 74.74c5.486 7.43 10.79 14.645 10.79 25.135 0 7.43-3.475 11.363-9.327 12.455v5.246h36.76v-5.463c-7.499.219-10.06-6.557-10.06-21.855V62.094c0-15.298 2.561-22.072 10.06-21.854v-5.465h-36.76v5.465c7.498-.218 11.156 6.556 11.156 21.854V89.63L542.81 60.127c-2.378-3.278-7.317-9.397-7.317-13.986 0-3.497 2.196-5.027 4.756-5.9v-5.466h-69.86v5.465c7.499-.218 10.057 6.556 10.057 21.854v89.166c0 10.409-1.189 16.864-4.308 19.863-5.944-4.49-8.174-15.254-10.4-22.705-12.62-44.583-28.53-99.874-28.53-102.715 0-3.715 1.464-5.026 4.207-5.463v-5.465h-53.4v5.465c2.56.437 4.021 2.185 4.021 5.463 0 3.06-2.193 9.178-3.107 11.8L360.217 148.2c-1.687 4.88-3.473 10.262-5.98 14.822-1.096-2.596-1.95-5.343-2.604-7.828-6.401-23.384-17.01-45.239-30.543-60.756 12.07-7.43 25.97-19.45 25.97-37.59 0-8.741-4.206-15.077-10.607-18.574-6.95-3.278-14.996-3.28-22.494-3.498zM292.928 49.2c9.144 0 15.361 5.683 15.361 16.828 0 18.577-16.824 27.318-29.26 31.034V64.717c0-3.278-.365-8.741 1.647-11.363 2.743-3.279 8.594-4.155 12.252-4.155m109.17 14.643 13.898 51.797c-7.315-6.12-16.276-10.928-25.42-10.71zm424.98-29.904v7.066c9.699-.283 13.01 8.482 13.01 28.27v115.333c0 19.788-3.311 28.553-13.01 28.27v7.066h74.277v-7.066c-9.698.283-13.01-8.482-13.01-28.27V135.14l8.28-3.393c9.935 13.852 33.59 54.557 33.59 71.8 0 7.633-4.257 9.048-9.697 9.33v7.067H1000v-7.066c-10.408 0-15.14-13.288-17.742-23.182-8.28-30.247-22-58.515-39.504-78.586 15.612-9.61 33.59-25.158 33.59-48.62 0-11.308-5.442-19.505-13.721-24.028-8.99-4.24-19.397-4.24-29.096-4.523zm79.246 18.656c11.828 0 19.87 7.35 19.87 21.767 0 24.028-21.763 35.335-37.848 40.14V72.667c0-4.24-.473-11.309 2.129-14.701 3.548-4.24 11.118-5.371 15.85-5.371" style="line-height:1.25;-inkscape-font-specification:&quot;ITC Benguiat Std Bold&quot;;text-align:center"/><path d="m126.717 32.797-7.656 42.568h4.709c5.594-16.65 17.795-25.77 33.658-26.174v102.172c0 16.168-2.63 23.354-14.844 23.578v5.616h68.213v-5.616c-12.214-.224-14.846-7.41-14.846-23.578V49.191c16.492 1.207 26.642 10 33.174 26.174h5.06l-7.187-42.568zm690.416-1.517c-3.475 4.37-10.79 3.495-15.362 3.495h-83.027v5.465c7.498-.218 10.059 6.556 10.059 21.854v89.166c0 15.298-2.56 22.072-10.059 21.853v5.465h90.71c2.01 0 4.022 0 5.85.438 2.012.218 3.659 1.091 5.122 3.058l15.545-56.82-3.84-1.75c-9.693 23.821-24.69 40.65-48.1 40.65-14.447 0-17.738-5.682-17.738-20.543V96.186h4.937c9.144 0 16.825-.874 23.958 6.994a35 35 0 0 1 3.656 4.77l7.248-.866-5.465-37.697h-4.88c-2.01 13.555-12.792 12.377-23.6 12.377h-5.854V74.77c0-17.484-1.096-25.57 16.826-25.57 18.288 0 34.015 12.676 39.319 33.874l4.023-1.531z" style="line-height:1.25;-inkscape-font-specification:&quot;ITC Benguiat Std Bold&quot;;text-align:center"/><path d="M693.004 29.75c-2.378 3.934-6.033 6.12-10.057 6.12-2.743 0-5.487-.656-8.23-1.311-9.327-2.186-14.814-3.28-28.53-3.28-27.783 0-52.174 12.753-62.302 39.567v59.562c4.267 12.512 11.127 23.807 20.058 31.998 15.545 14.206 34.93 16.172 53.766 16.172h58.887v-5.465c-2.927-1.311-6.035-2.62-7.498-6.117-1.83-4.152-1.645-14.424-1.645-19.232v-25.352c0-11.583-1.463-24.477 11.522-25.351v-5.463H660.27v5.463c12.07.655 11.156 12.238 11.156 22.947v20.105c0 5.245.18 12.241-2.014 16.83-2.377 5.245-8.046 7.211-12.8 7.211-25.97 0-37.49-35.187-37.49-61.412 0-27.1 9.875-55.072 36.026-55.072 17.923 0 33.1 14.423 39.684 33.873l3.842-.652zM59.137 25.828C38.586 25.828.022 36.704 0 86.424c-.013 29.922 16.203 42.126 40.72 51.457l23.858 9.314c9.921 3.952 24.332 7.7 24.332 23.225 0 23.43-17.808 27.639-33.87 27.639-23.694 0-35.89-18.73-43.515-42.262H3.551L0 220.668c3.543-4.234 7.323-6.465 12.756-6.465 4.488 0 11.102 1.691 15.59 2.82 11.81 2.541 21.023 4.235 33.07 4.235 48.425 0 78.19-21.76 78.19-68.62 0-23.711-17.716-42.626-39.211-50.247l-27.641-9.88c-8.74-3.104-24.235-7.344-24.567-21.454-.377-16.102 14.41-22.3 25.985-22.3 15.733 0 31.77 13.864 40.414 29.95l8.264-45.953s-2.607 2.026-9.827 1.053c-8.154-1.1-19.948-7.979-53.886-7.979M0 0v13.082h975.967V0Z" style="line-height:1.25;-inkscape-font-specification:&quot;ITC Benguiat Std Bold&quot;;text-align:center"/></g></svg>